<svg width="24" height="24" viewBox="0 0 24 24" fill="none" xmlns="http://www.w3.org/2000/svg">
<path d="M12 5.61L9.24 8.35L12.55 11.66L11.49 12.72L8.18 9.41L6.41 11.18L9.72 14.49L8.66 15.55L5.35 12.24L3.35 14.24C3.03219 14.5478 2.82544 14.9524 2.7621 15.3903C2.69877 15.8282 2.78243 16.2747 3 16.66L4 18.55L1.75 20.84L3.16 22.25L5.45 20L7.34 21C7.64481 21.1728 7.98965 21.2624 8.34 21.26C8.60391 21.2602 8.86526 21.2082 9.10897 21.1069C9.35268 21.0057 9.57394 20.8572 9.76 20.67L18.39 12L12 5.61ZM19.8 9.2L18.01 7.4L19.43 5.99L20.84 7.4L22.25 5.99L18.01 1.75L16.6 3.16L18.01 4.58L16.6 5.99L14.8 4.2L13.06 2.45L11.65 3.87L12.68 4.9V4.91L19.09 11.32H19.1L20.13 12.35L21.55 10.94L19.81 9.2H19.8Z" fill="#1DA599"/>
</svg>
