<svg width="36" height="36" viewBox="0 0 36 36" fill="none" xmlns="http://www.w3.org/2000/svg">
<rect width="36" height="36" rx="10" fill="#C1FFFA"/>
<path fill-rule="evenodd" clip-rule="evenodd" d="M20.008 25.003L20.014 23C20.014 22.7341 20.1196 22.4791 20.3076 22.2911C20.4956 22.1031 20.7506 21.9975 21.0165 21.9975C21.2824 21.9975 21.5374 22.1031 21.7254 22.2911C21.9134 22.4791 22.019 22.7341 22.019 23V24.977C22.019 25.458 22.019 25.699 22.173 25.847C22.328 25.994 22.563 25.984 23.036 25.964C24.899 25.885 26.044 25.634 26.85 24.828C27.66 24.022 27.911 22.877 27.99 21.011C28.005 20.641 28.013 20.455 27.944 20.332C27.874 20.209 27.599 20.055 27.047 19.746C26.7361 19.5727 26.4771 19.3194 26.2968 19.0125C26.1165 18.7055 26.0214 18.356 26.0214 18C26.0214 17.644 26.1165 17.2945 26.2968 16.9875C26.4771 16.6806 26.7361 16.4273 27.047 16.254C27.599 15.946 27.875 15.791 27.944 15.668C28.013 15.545 28.005 15.36 27.989 14.989C27.911 13.123 27.659 11.979 26.85 11.172C25.973 10.296 24.695 10.075 22.528 10.019C22.4617 10.0173 22.3956 10.0288 22.3338 10.053C22.272 10.0772 22.2157 10.1136 22.1681 10.1599C22.1206 10.2062 22.0828 10.2616 22.057 10.3228C22.0313 10.3839 22.018 10.4496 22.018 10.516V13C22.018 13.2659 21.9124 13.5209 21.7244 13.7089C21.5364 13.8969 21.2814 14.0025 21.0155 14.0025C20.7496 14.0025 20.4946 13.8969 20.3066 13.7089C20.1186 13.5209 20.013 13.2659 20.013 13L20.006 10.499C20.0057 10.3666 19.9529 10.2396 19.8592 10.1461C19.7655 10.0525 19.6384 10 19.506 10H15.994C12.214 10 10.324 10 9.14901 11.172C8.33901 11.978 8.08801 13.123 8.00901 14.989C7.99401 15.359 7.98601 15.545 8.05501 15.668C8.12501 15.791 8.40001 15.946 8.95201 16.254C9.26294 16.4273 9.52195 16.6806 9.70225 16.9875C9.88256 17.2945 9.97762 17.644 9.97762 18C9.97762 18.356 9.88256 18.7055 9.70225 19.0125C9.52195 19.3194 9.26294 19.5727 8.95201 19.746C8.40001 20.055 8.12401 20.209 8.05501 20.332C7.98601 20.455 7.99401 20.64 8.01001 21.01C8.08801 22.877 8.34001 24.022 9.14901 24.828C10.324 26 12.214 26 15.995 26H19.005C19.477 26 19.712 26 19.859 25.854C20.006 25.708 20.007 25.474 20.008 25.003ZM22.018 19V17C22.018 16.7341 21.9124 16.4791 21.7244 16.2911C21.5364 16.1031 21.2814 15.9975 21.0155 15.9975C20.7496 15.9975 20.4946 16.1031 20.3066 16.2911C20.1186 16.4791 20.013 16.7341 20.013 17V19C20.013 19.266 20.1187 19.5211 20.3068 19.7092C20.4949 19.8973 20.75 20.003 21.016 20.003C21.282 20.003 21.5371 19.8973 21.7252 19.7092C21.9133 19.5211 22.018 19.266 22.018 19Z" fill="#1DA599"/>
</svg>
