<svg width="36" height="36" viewBox="0 0 36 36" fill="none" xmlns="http://www.w3.org/2000/svg">
<rect width="36" height="36" rx="10" fill="#C1FFFA"/>
<path d="M26.16 18.7299C26.825 18.0658 27.3323 17.2607 27.6442 16.3741C27.9561 15.4875 28.0647 14.5422 27.9619 13.6079C27.8592 12.6737 27.5477 11.7746 27.0506 10.9769C26.5535 10.1793 25.8835 9.50366 25.09 8.99993C23.08 7.66993 20.39 7.65993 18.36 8.96993C16.6 10.0999 15.63 11.8599 15.46 13.6799C15.33 14.9999 14.83 16.2299 13.91 17.1499L13.88 17.1799C12.72 18.3399 12.72 20.1099 13.81 21.1899L14.8 22.1799C15.3239 22.7035 16.0343 22.9976 16.775 22.9976C17.5157 22.9976 18.2261 22.7035 18.75 22.1799C19.72 21.2099 21 20.6799 22.39 20.5299C23.76 20.3799 25.1 19.7799 26.16 18.7299ZM12.26 25.8599C12.53 26.4199 12.44 27.0999 11.97 27.5599C11.7664 27.7666 11.507 27.9093 11.2235 27.9706C10.94 28.0319 10.6448 28.0091 10.374 27.9051C10.1033 27.801 9.8688 27.6202 9.69933 27.3848C9.52986 27.1494 9.43278 26.8697 9.42 26.5799C9.13023 26.5671 8.85049 26.4701 8.6151 26.3006C8.3797 26.1311 8.19889 25.8966 8.09484 25.6259C7.99079 25.3551 7.96802 25.0599 8.02934 24.7764C8.09065 24.4929 8.23337 24.2335 8.44 24.0299C8.9 23.5699 9.59 23.4699 10.14 23.7399L12.62 21.3099C12.76 21.4999 12.92 21.7199 13.1 21.8999L14.09 22.8899C14.3 23.0899 14.5 23.2599 14.76 23.4099L12.26 25.8599Z" fill="#1DA599"/>
</svg>
