<svg width="24" height="24" viewBox="0 0 24 24" fill="none" xmlns="http://www.w3.org/2000/svg">
<path d="M1.87171 6.99609L11.1248 11.4642C11.3658 11.5791 11.6873 11.6391 12.0056 11.6391C12.3239 11.6391 12.6455 11.5791 12.8859 11.4642L22.1391 6.99609C22.6256 6.76172 22.6256 6.37828 22.1391 6.14297L12.8859 1.67484C12.6455 1.56 12.3234 1.5 12.0056 1.5C11.6878 1.5 11.3658 1.56 11.1248 1.67484L1.87171 6.14297C1.38515 6.37828 1.38515 6.76078 1.87171 6.99609Z" fill="#1DA599"/>
<path d="M22.1391 11.5734C22.1391 11.5734 20.4492 10.7587 20.2252 10.649C20.0011 10.5394 19.9406 10.5454 19.7053 10.6547C19.47 10.7639 12.8803 13.9467 12.8803 13.9467C12.6025 14.0666 12.3025 14.1264 12 14.122C11.6827 14.122 11.3602 14.0615 11.1197 13.9467C11.1197 13.9467 4.70485 10.8529 4.40391 10.7039C4.07813 10.5469 3.98438 10.5469 3.68766 10.6875L1.85954 11.5678C1.37297 11.8022 1.37297 12.1861 1.85954 12.4209L11.1141 16.889C11.3545 17.0039 11.6766 17.0639 11.9944 17.0639C12.3122 17.0639 12.6342 17.0039 12.8752 16.889L22.1283 12.4219C22.6256 12.1912 22.6256 11.8087 22.1391 11.5734Z" fill="#1DA599"/>
<path d="M22.1391 17.0039C22.1391 17.0039 20.4492 16.1892 20.2252 16.0781C20.0011 15.967 19.9406 15.9745 19.7053 16.0837C19.47 16.193 12.8859 19.3828 12.8859 19.3828C12.6081 19.5025 12.3081 19.5621 12.0056 19.5576C11.6883 19.5576 11.3658 19.4976 11.1248 19.3828C11.1248 19.3828 4.71001 16.289 4.40954 16.14C4.08141 15.9811 3.98766 15.9811 3.69282 16.1236L1.86469 17.0039C1.37766 17.2383 1.37766 17.6217 1.86469 17.857L11.1178 22.3251C11.3583 22.4451 11.6803 22.5 11.9981 22.5C12.3159 22.5 12.638 22.44 12.8784 22.3251L22.1334 17.8594C22.6256 17.6217 22.6256 17.2392 22.1391 17.0039Z" fill="#1DA599"/>
</svg>
