<svg width="24" height="24" viewBox="0 0 24 24" fill="none" xmlns="http://www.w3.org/2000/svg">
<path d="M20.16 12.73C20.825 12.0659 21.3323 11.2607 21.6442 10.3742C21.9561 9.48758 22.0647 8.54222 21.9619 7.608C21.8592 6.67378 21.5477 5.77461 21.0506 4.97699C20.5535 4.17938 19.8835 3.50372 19.09 2.99999C17.08 1.66999 14.39 1.65999 12.36 2.96999C10.6 4.09999 9.63 5.85999 9.46 7.67999C9.33 8.99999 8.83 10.23 7.91 11.15L7.88 11.18C6.72 12.34 6.72 14.11 7.81 15.19L8.8 16.18C9.32392 16.7036 10.0343 16.9977 10.775 16.9977C11.5157 16.9977 12.2261 16.7036 12.75 16.18C13.72 15.21 15 14.68 16.39 14.53C17.76 14.38 19.1 13.78 20.16 12.73ZM6.26 19.86C6.53 20.42 6.44 21.1 5.97 21.56C5.76644 21.7666 5.507 21.9093 5.2235 21.9707C4.94001 22.032 4.64478 22.0092 4.37403 21.9051C4.10329 21.8011 3.8688 21.6203 3.69933 21.3849C3.52986 21.1495 3.43278 20.8698 3.42 20.58C3.13023 20.5672 2.85049 20.4701 2.6151 20.3007C2.3797 20.1312 2.19889 19.8967 2.09484 19.626C1.99079 19.3552 1.96802 19.06 2.02934 18.7765C2.09065 18.493 2.23337 18.2335 2.44 18.03C2.9 17.57 3.59 17.47 4.14 17.74L6.62 15.31C6.76 15.5 6.92 15.72 7.1 15.9L8.09 16.89C8.3 17.09 8.5 17.26 8.76 17.41L6.26 19.86Z" fill="#1DA599"/>
</svg>
