<svg width="24" height="24" viewBox="0 0 24 24" fill="none" xmlns="http://www.w3.org/2000/svg">
<path fill-rule="evenodd" clip-rule="evenodd" d="M8.962 18.469C6.019 16.214 2 12.489 2 8.96703C2 3.08303 7.5 0.886025 12 5.43003C16.5 0.886025 22 3.08303 22 8.96603C22 12.489 17.98 16.214 15.038 18.469C13.706 19.489 13.04 20 12 20C10.96 20 10.294 19.49 8.962 18.469ZM16.5 6.25003C16.6989 6.25003 16.8897 6.32904 17.0303 6.4697C17.171 6.61035 17.25 6.80111 17.25 7.00003V8.25003H18.5C18.6989 8.25003 18.8897 8.32904 19.0303 8.4697C19.171 8.61035 19.25 8.80111 19.25 9.00003C19.25 9.19894 19.171 9.3897 19.0303 9.53036C18.8897 9.67101 18.6989 9.75003 18.5 9.75003H17.25V11C17.25 11.1989 17.171 11.3897 17.0303 11.5304C16.8897 11.671 16.6989 11.75 16.5 11.75C16.3011 11.75 16.1103 11.671 15.9697 11.5304C15.829 11.3897 15.75 11.1989 15.75 11V9.75003H14.5C14.3011 9.75003 14.1103 9.67101 13.9697 9.53036C13.829 9.3897 13.75 9.19894 13.75 9.00003C13.75 8.80111 13.829 8.61035 13.9697 8.4697C14.1103 8.32904 14.3011 8.25003 14.5 8.25003H15.75V7.00003C15.75 6.80111 15.829 6.61035 15.9697 6.4697C16.1103 6.32904 16.3011 6.25003 16.5 6.25003Z" fill="#1DA599"/>
</svg>
