<svg width="20" height="20" viewBox="0 0 20 20" fill="none" xmlns="http://www.w3.org/2000/svg">
<path d="M2 1.69779e-06H18C18.55 1.69779e-06 19.021 0.196002 19.413 0.588002C19.805 0.980002 20.0007 1.45067 20 2V13C20 13.55 19.804 14.021 19.412 14.413C19.02 14.805 18.5493 15.0007 18 15H14V18.375C14 18.7583 13.8417 19.046 13.525 19.238C13.2083 19.43 12.8833 19.4423 12.55 19.275L10.45 18.225C10.3167 18.1417 10.1667 18.1 10 18.1C9.83333 18.1 9.68334 18.1417 9.55 18.225L7.45 19.275C7.11667 19.4417 6.79167 19.4293 6.475 19.238C6.15834 19.0467 6 18.759 6 18.375V15H2C1.45 15 0.979002 14.804 0.587002 14.412C0.195002 14.02 -0.000664969 13.5493 1.69779e-06 13V2C1.69779e-06 1.45 0.196002 0.979002 0.588002 0.587002C0.980002 0.195002 1.45067 -0.000664969 2 1.69779e-06ZM2 11H18V8H2V11Z" fill="#1DA599"/>
</svg>
